<svg xmlns="http://www.w3.org/2000/svg" width="720" height="420"><rect width="100%" height="100%" fill="#ffffff"/><text x="360.0" y="28" text-anchor="middle" font-size="20" font-family="monospace">Sequential Evidence Trace</text><line x1="70" y1="365" x2="700" y2="365" stroke="#222"/><line x1="70" y1="50" x2="70" y2="365" stroke="#222"/><text x="360.0" y="408" text-anchor="middle" font-size="14" font-family="monospace">prompt_index</text><text x="18" y="210.0" text-anchor="middle" transform="rotate(-90 18 210.0)" font-size="14" font-family="monospace">e_value</text><line x1="65" y1="365.0" x2="70" y2="365.0" stroke="#222"/><text x="60" y="369.0" text-anchor="end" font-size="11" font-family="monospace">0.00</text><line x1="65" y1="286.25" x2="70" y2="286.25" stroke="#222"/><text x="60" y="290.25" text-anchor="end" font-size="11" font-family="monospace">0.25</text><line x1="65" y1="207.5" x2="70" y2="207.5" stroke="#222"/><text x="60" y="211.5" text-anchor="end" font-size="11" font-family="monospace">0.50</text><line x1="65" y1="128.75" x2="70" y2="128.75" stroke="#222"/><text x="60" y="132.75" text-anchor="end" font-size="11" font-family="monospace">0.75</text><line x1="65" y1="50.0" x2="70" y2="50.0" stroke="#222"/><text x="60" y="54.0" text-anchor="end" font-size="11" font-family="monospace">1.00</text><line x1="70.0" y1="365" x2="70.0" y2="370" stroke="#222"/><text x="70.0" y="385" text-anchor="middle" font-size="11" font-family="monospace">1.0</text><line x1="75.29411764705883" y1="365" x2="75.29411764705883" y2="370" stroke="#222"/><text x="75.29411764705883" y="385" text-anchor="middle" font-size="11" font-family="monospace">2.0</text><line x1="80.58823529411765" y1="365" x2="80.58823529411765" y2="370" stroke="#222"/><text x="80.58823529411765" y="385" text-anchor="middle" font-size="11" font-family="monospace">3.0</text><line x1="85.88235294117646" y1="365" x2="85.88235294117646" y2="370" stroke="#222"/><text x="85.88235294117646" y="385" text-anchor="middle" font-size="11" font-family="monospace">4.0</text><line x1="91.17647058823529" y1="365" x2="91.17647058823529" y2="370" stroke="#222"/><text x="91.17647058823529" y="385" text-anchor="middle" font-size="11" font-family="monospace">5.0</text><line x1="96.47058823529412" y1="365" x2="96.47058823529412" y2="370" stroke="#222"/><text x="96.47058823529412" y="385" text-anchor="middle" font-size="11" font-family="monospace">6.0</text><line x1="101.76470588235294" y1="365" x2="101.76470588235294" y2="370" stroke="#222"/><text x="101.76470588235294" y="385" text-anchor="middle" font-size="11" font-family="monospace">7.0</text><line x1="107.05882352941177" y1="365" x2="107.05882352941177" y2="370" stroke="#222"/><text x="107.05882352941177" y="385" text-anchor="middle" font-size="11" font-family="monospace">8.0</text><line x1="112.35294117647058" y1="365" x2="112.35294117647058" y2="370" stroke="#222"/><text x="112.35294117647058" y="385" text-anchor="middle" font-size="11" font-family="monospace">9.0</text><line x1="117.6470588235294" y1="365" x2="117.6470588235294" y2="370" stroke="#222"/><text x="117.6470588235294" y="385" text-anchor="middle" font-size="11" font-family="monospace">10.0</text><line x1="122.94117647058823" y1="365" x2="122.94117647058823" y2="370" stroke="#222"/><text x="122.94117647058823" y="385" text-anchor="middle" font-size="11" font-family="monospace">11.0</text><line x1="128.23529411764707" y1="365" x2="128.23529411764707" y2="370" stroke="#222"/><text x="128.23529411764707" y="385" text-anchor="middle" font-size="11" font-family="monospace">12.0</text><line x1="133.52941176470588" y1="365" x2="133.52941176470588" y2="370" stroke="#222"/><text x="133.52941176470588" y="385" text-anchor="middle" font-size="11" font-family="monospace">13.0</text><line x1="138.8235294117647" y1="365" x2="138.8235294117647" y2="370" stroke="#222"/><text x="138.8235294117647" y="385" text-anchor="middle" font-size="11" font-family="monospace">14.0</text><line x1="144.11764705882354" y1="365" x2="144.11764705882354" y2="370" stroke="#222"/><text x="144.11764705882354" y="385" text-anchor="middle" font-size="11" font-family="monospace">15.0</text><line x1="149.41176470588235" y1="365" x2="149.41176470588235" y2="370" stroke="#222"/><text x="149.41176470588235" y="385" text-anchor="middle" font-size="11" font-family="monospace">16.0</text><line x1="154.70588235294116" y1="365" x2="154.70588235294116" y2="370" stroke="#222"/><text x="154.70588235294116" y="385" text-anchor="middle" font-size="11" font-family="monospace">17.0</text><line x1="160.0" y1="365" x2="160.0" y2="370" stroke="#222"/><text x="160.0" y="385" text-anchor="middle" font-size="11" font-family="monospace">18.0</text><line x1="165.2941176470588" y1="365" x2="165.2941176470588" y2="370" stroke="#222"/><text x="165.2941176470588" y="385" text-anchor="middle" font-size="11" font-family="monospace">19.0</text><line x1="170.58823529411762" y1="365" x2="170.58823529411762" y2="370" stroke="#222"/><text x="170.58823529411762" y="385" text-anchor="middle" font-size="11" font-family="monospace">20.0</text><line x1="175.88235294117646" y1="365" x2="175.88235294117646" y2="370" stroke="#222"/><text x="175.88235294117646" y="385" text-anchor="middle" font-size="11" font-family="monospace">21.0</text><line x1="181.1764705882353" y1="365" x2="181.1764705882353" y2="370" stroke="#222"/><text x="181.1764705882353" y="385" text-anchor="middle" font-size="11" font-family="monospace">22.0</text><line x1="186.47058823529414" y1="365" x2="186.47058823529414" y2="370" stroke="#222"/><text x="186.47058823529414" y="385" text-anchor="middle" font-size="11" font-family="monospace">23.0</text><line x1="191.76470588235293" y1="365" x2="191.76470588235293" y2="370" stroke="#222"/><text x="191.76470588235293" y="385" text-anchor="middle" font-size="11" font-family="monospace">24.0</text><line x1="197.05882352941177" y1="365" x2="197.05882352941177" y2="370" stroke="#222"/><text x="197.05882352941177" y="385" text-anchor="middle" font-size="11" font-family="monospace">25.0</text><line x1="202.35294117647058" y1="365" x2="202.35294117647058" y2="370" stroke="#222"/><text x="202.35294117647058" y="385" text-anchor="middle" font-size="11" font-family="monospace">26.0</text><line x1="207.64705882352942" y1="365" x2="207.64705882352942" y2="370" stroke="#222"/><text x="207.64705882352942" y="385" text-anchor="middle" font-size="11" font-family="monospace">27.0</text><line x1="212.94117647058823" y1="365" x2="212.94117647058823" y2="370" stroke="#222"/><text x="212.94117647058823" y="385" text-anchor="middle" font-size="11" font-family="monospace">28.0</text><line x1="218.23529411764704" y1="365" x2="218.23529411764704" y2="370" stroke="#222"/><text x="218.23529411764704" y="385" text-anchor="middle" font-size="11" font-family="monospace">29.0</text><line x1="223.52941176470588" y1="365" x2="223.52941176470588" y2="370" stroke="#222"/><text x="223.52941176470588" y="385" text-anchor="middle" font-size="11" font-family="monospace">30.0</text><line x1="228.8235294117647" y1="365" x2="228.8235294117647" y2="370" stroke="#222"/><text x="228.8235294117647" y="385" text-anchor="middle" font-size="11" font-family="monospace">31.0</text><line x1="234.11764705882354" y1="365" x2="234.11764705882354" y2="370" stroke="#222"/><text x="234.11764705882354" y="385" text-anchor="middle" font-size="11" font-family="monospace">32.0</text><line x1="239.41176470588235" y1="365" x2="239.41176470588235" y2="370" stroke="#222"/><text x="239.41176470588235" y="385" text-anchor="middle" font-size="11" font-family="monospace">33.0</text><line x1="244.7058823529412" y1="365" x2="244.7058823529412" y2="370" stroke="#222"/><text x="244.7058823529412" y="385" text-anchor="middle" font-size="11" font-family="monospace">34.0</text><line x1="250.0" y1="365" x2="250.0" y2="370" stroke="#222"/><text x="250.0" y="385" text-anchor="middle" font-size="11" font-family="monospace">35.0</text><line x1="255.29411764705884" y1="365" x2="255.29411764705884" y2="370" stroke="#222"/><text x="255.29411764705884" y="385" text-anchor="middle" font-size="11" font-family="monospace">36.0</text><line x1="260.5882352941176" y1="365" x2="260.5882352941176" y2="370" stroke="#222"/><text x="260.5882352941176" y="385" text-anchor="middle" font-size="11" font-family="monospace">37.0</text><line x1="265.88235294117646" y1="365" x2="265.88235294117646" y2="370" stroke="#222"/><text x="265.88235294117646" y="385" text-anchor="middle" font-size="11" font-family="monospace">38.0</text><line x1="271.17647058823525" y1="365" x2="271.17647058823525" y2="370" stroke="#222"/><text x="271.17647058823525" y="385" text-anchor="middle" font-size="11" font-family="monospace">39.0</text><line x1="276.47058823529414" y1="365" x2="276.47058823529414" y2="370" stroke="#222"/><text x="276.47058823529414" y="385" text-anchor="middle" font-size="11" font-family="monospace">40.0</text><line x1="281.7647058823529" y1="365" x2="281.7647058823529" y2="370" stroke="#222"/><text x="281.7647058823529" y="385" text-anchor="middle" font-size="11" font-family="monospace">41.0</text><line x1="287.05882352941177" y1="365" x2="287.05882352941177" y2="370" stroke="#222"/><text x="287.05882352941177" y="385" text-anchor="middle" font-size="11" font-family="monospace">42.0</text><line x1="292.3529411764706" y1="365" x2="292.3529411764706" y2="370" stroke="#222"/><text x="292.3529411764706" y="385" text-anchor="middle" font-size="11" font-family="monospace">43.0</text><line x1="297.6470588235294" y1="365" x2="297.6470588235294" y2="370" stroke="#222"/><text x="297.6470588235294" y="385" text-anchor="middle" font-size="11" font-family="monospace">44.0</text><line x1="302.9411764705883" y1="365" x2="302.9411764705883" y2="370" stroke="#222"/><text x="302.9411764705883" y="385" text-anchor="middle" font-size="11" font-family="monospace">45.0</text><line x1="308.2352941176471" y1="365" x2="308.2352941176471" y2="370" stroke="#222"/><text x="308.2352941176471" y="385" text-anchor="middle" font-size="11" font-family="monospace">46.0</text><line x1="313.52941176470586" y1="365" x2="313.52941176470586" y2="370" stroke="#222"/><text x="313.52941176470586" y="385" text-anchor="middle" font-size="11" font-family="monospace">47.0</text><line x1="318.8235294117647" y1="365" x2="318.8235294117647" y2="370" stroke="#222"/><text x="318.8235294117647" y="385" text-anchor="middle" font-size="11" font-family="monospace">48.0</text><line x1="324.11764705882354" y1="365" x2="324.11764705882354" y2="370" stroke="#222"/><text x="324.11764705882354" y="385" text-anchor="middle" font-size="11" font-family="monospace">49.0</text><line x1="329.4117647058823" y1="365" x2="329.4117647058823" y2="370" stroke="#222"/><text x="329.4117647058823" y="385" text-anchor="middle" font-size="11" font-family="monospace">50.0</text><line x1="334.70588235294116" y1="365" x2="334.70588235294116" y2="370" stroke="#222"/><text x="334.70588235294116" y="385" text-anchor="middle" font-size="11" font-family="monospace">51.0</text><line x1="340.0" y1="365" x2="340.0" y2="370" stroke="#222"/><text x="340.0" y="385" text-anchor="middle" font-size="11" font-family="monospace">52.0</text><line x1="345.29411764705884" y1="365" x2="345.29411764705884" y2="370" stroke="#222"/><text x="345.29411764705884" y="385" text-anchor="middle" font-size="11" font-family="monospace">53.0</text><line x1="350.5882352941177" y1="365" x2="350.5882352941177" y2="370" stroke="#222"/><text x="350.5882352941177" y="385" text-anchor="middle" font-size="11" font-family="monospace">54.0</text><line x1="355.88235294117646" y1="365" x2="355.88235294117646" y2="370" stroke="#222"/><text x="355.88235294117646" y="385" text-anchor="middle" font-size="11" font-family="monospace">55.0</text><line x1="361.1764705882353" y1="365" x2="361.1764705882353" y2="370" stroke="#222"/><text x="361.1764705882353" y="385" text-anchor="middle" font-size="11" font-family="monospace">56.0</text><line x1="366.4705882352941" y1="365" x2="366.4705882352941" y2="370" stroke="#222"/><text x="366.4705882352941" y="385" text-anchor="middle" font-size="11" font-family="monospace">57.0</text><line x1="371.7647058823529" y1="365" x2="371.7647058823529" y2="370" stroke="#222"/><text x="371.7647058823529" y="385" text-anchor="middle" font-size="11" font-family="monospace">58.0</text><line x1="377.05882352941177" y1="365" x2="377.05882352941177" y2="370" stroke="#222"/><text x="377.05882352941177" y="385" text-anchor="middle" font-size="11" font-family="monospace">59.0</text><line x1="382.3529411764706" y1="365" x2="382.3529411764706" y2="370" stroke="#222"/><text x="382.3529411764706" y="385" text-anchor="middle" font-size="11" font-family="monospace">60.0</text><line x1="387.6470588235294" y1="365" x2="387.6470588235294" y2="370" stroke="#222"/><text x="387.6470588235294" y="385" text-anchor="middle" font-size="11" font-family="monospace">61.0</text><line x1="392.94117647058823" y1="365" x2="392.94117647058823" y2="370" stroke="#222"/><text x="392.94117647058823" y="385" text-anchor="middle" font-size="11" font-family="monospace">62.0</text><line x1="398.2352941176471" y1="365" x2="398.2352941176471" y2="370" stroke="#222"/><text x="398.2352941176471" y="385" text-anchor="middle" font-size="11" font-family="monospace">63.0</text><line x1="403.5294117647059" y1="365" x2="403.5294117647059" y2="370" stroke="#222"/><text x="403.5294117647059" y="385" text-anchor="middle" font-size="11" font-family="monospace">64.0</text><line x1="408.8235294117647" y1="365" x2="408.8235294117647" y2="370" stroke="#222"/><text x="408.8235294117647" y="385" text-anchor="middle" font-size="11" font-family="monospace">65.0</text><line x1="414.1176470588235" y1="365" x2="414.1176470588235" y2="370" stroke="#222"/><text x="414.1176470588235" y="385" text-anchor="middle" font-size="11" font-family="monospace">66.0</text><line x1="419.4117647058824" y1="365" x2="419.4117647058824" y2="370" stroke="#222"/><text x="419.4117647058824" y="385" text-anchor="middle" font-size="11" font-family="monospace">67.0</text><line x1="424.70588235294116" y1="365" x2="424.70588235294116" y2="370" stroke="#222"/><text x="424.70588235294116" y="385" text-anchor="middle" font-size="11" font-family="monospace">68.0</text><line x1="430.0" y1="365" x2="430.0" y2="370" stroke="#222"/><text x="430.0" y="385" text-anchor="middle" font-size="11" font-family="monospace">69.0</text><line x1="435.29411764705884" y1="365" x2="435.29411764705884" y2="370" stroke="#222"/><text x="435.29411764705884" y="385" text-anchor="middle" font-size="11" font-family="monospace">70.0</text><line x1="440.5882352941177" y1="365" x2="440.5882352941177" y2="370" stroke="#222"/><text x="440.5882352941177" y="385" text-anchor="middle" font-size="11" font-family="monospace">71.0</text><line x1="445.88235294117646" y1="365" x2="445.88235294117646" y2="370" stroke="#222"/><text x="445.88235294117646" y="385" text-anchor="middle" font-size="11" font-family="monospace">72.0</text><line x1="451.17647058823525" y1="365" x2="451.17647058823525" y2="370" stroke="#222"/><text x="451.17647058823525" y="385" text-anchor="middle" font-size="11" font-family="monospace">73.0</text><line x1="456.47058823529414" y1="365" x2="456.47058823529414" y2="370" stroke="#222"/><text x="456.47058823529414" y="385" text-anchor="middle" font-size="11" font-family="monospace">74.0</text><line x1="461.7647058823529" y1="365" x2="461.7647058823529" y2="370" stroke="#222"/><text x="461.7647058823529" y="385" text-anchor="middle" font-size="11" font-family="monospace">75.0</text><line x1="467.05882352941177" y1="365" x2="467.05882352941177" y2="370" stroke="#222"/><text x="467.05882352941177" y="385" text-anchor="middle" font-size="11" font-family="monospace">76.0</text><line x1="472.35294117647055" y1="365" x2="472.35294117647055" y2="370" stroke="#222"/><text x="472.35294117647055" y="385" text-anchor="middle" font-size="11" font-family="monospace">77.0</text><line x1="477.64705882352945" y1="365" x2="477.64705882352945" y2="370" stroke="#222"/><text x="477.64705882352945" y="385" text-anchor="middle" font-size="11" font-family="monospace">78.0</text><line x1="482.94117647058823" y1="365" x2="482.94117647058823" y2="370" stroke="#222"/><text x="482.94117647058823" y="385" text-anchor="middle" font-size="11" font-family="monospace">79.0</text><line x1="488.235294117647" y1="365" x2="488.235294117647" y2="370" stroke="#222"/><text x="488.235294117647" y="385" text-anchor="middle" font-size="11" font-family="monospace">80.0</text><line x1="493.5294117647059" y1="365" x2="493.5294117647059" y2="370" stroke="#222"/><text x="493.5294117647059" y="385" text-anchor="middle" font-size="11" font-family="monospace">81.0</text><line x1="498.8235294117647" y1="365" x2="498.8235294117647" y2="370" stroke="#222"/><text x="498.8235294117647" y="385" text-anchor="middle" font-size="11" font-family="monospace">82.0</text><line x1="504.11764705882354" y1="365" x2="504.11764705882354" y2="370" stroke="#222"/><text x="504.11764705882354" y="385" text-anchor="middle" font-size="11" font-family="monospace">83.0</text><line x1="509.4117647058823" y1="365" x2="509.4117647058823" y2="370" stroke="#222"/><text x="509.4117647058823" y="385" text-anchor="middle" font-size="11" font-family="monospace">84.0</text><line x1="514.7058823529412" y1="365" x2="514.7058823529412" y2="370" stroke="#222"/><text x="514.7058823529412" y="385" text-anchor="middle" font-size="11" font-family="monospace">85.0</text><line x1="520.0" y1="365" x2="520.0" y2="370" stroke="#222"/><text x="520.0" y="385" text-anchor="middle" font-size="11" font-family="monospace">86.0</text><line x1="525.2941176470588" y1="365" x2="525.2941176470588" y2="370" stroke="#222"/><text x="525.2941176470588" y="385" text-anchor="middle" font-size="11" font-family="monospace">87.0</text><line x1="530.5882352941176" y1="365" x2="530.5882352941176" y2="370" stroke="#222"/><text x="530.5882352941176" y="385" text-anchor="middle" font-size="11" font-family="monospace">88.0</text><line x1="535.8823529411766" y1="365" x2="535.8823529411766" y2="370" stroke="#222"/><text x="535.8823529411766" y="385" text-anchor="middle" font-size="11" font-family="monospace">89.0</text><line x1="541.1764705882354" y1="365" x2="541.1764705882354" y2="370" stroke="#222"/><text x="541.1764705882354" y="385" text-anchor="middle" font-size="11" font-family="monospace">90.0</text><line x1="546.4705882352941" y1="365" x2="546.4705882352941" y2="370" stroke="#222"/><text x="546.4705882352941" y="385" text-anchor="middle" font-size="11" font-family="monospace">91.0</text><line x1="551.7647058823529" y1="365" x2="551.7647058823529" y2="370" stroke="#222"/><text x="551.7647058823529" y="385" text-anchor="middle" font-size="11" font-family="monospace">92.0</text><line x1="557.0588235294117" y1="365" x2="557.0588235294117" y2="370" stroke="#222"/><text x="557.0588235294117" y="385" text-anchor="middle" font-size="11" font-family="monospace">93.0</text><line x1="562.3529411764706" y1="365" x2="562.3529411764706" y2="370" stroke="#222"/><text x="562.3529411764706" y="385" text-anchor="middle" font-size="11" font-family="monospace">94.0</text><line x1="567.6470588235294" y1="365" x2="567.6470588235294" y2="370" stroke="#222"/><text x="567.6470588235294" y="385" text-anchor="middle" font-size="11" font-family="monospace">95.0</text><line x1="572.9411764705883" y1="365" x2="572.9411764705883" y2="370" stroke="#222"/><text x="572.9411764705883" y="385" text-anchor="middle" font-size="11" font-family="monospace">96.0</text><line x1="578.2352941176471" y1="365" x2="578.2352941176471" y2="370" stroke="#222"/><text x="578.2352941176471" y="385" text-anchor="middle" font-size="11" font-family="monospace">97.0</text><line x1="583.5294117647059" y1="365" x2="583.5294117647059" y2="370" stroke="#222"/><text x="583.5294117647059" y="385" text-anchor="middle" font-size="11" font-family="monospace">98.0</text><line x1="588.8235294117646" y1="365" x2="588.8235294117646" y2="370" stroke="#222"/><text x="588.8235294117646" y="385" text-anchor="middle" font-size="11" font-family="monospace">99.0</text><line x1="594.1176470588235" y1="365" x2="594.1176470588235" y2="370" stroke="#222"/><text x="594.1176470588235" y="385" text-anchor="middle" font-size="11" font-family="monospace">100.0</text><line x1="599.4117647058823" y1="365" x2="599.4117647058823" y2="370" stroke="#222"/><text x="599.4117647058823" y="385" text-anchor="middle" font-size="11" font-family="monospace">101.0</text><line x1="604.7058823529412" y1="365" x2="604.7058823529412" y2="370" stroke="#222"/><text x="604.7058823529412" y="385" text-anchor="middle" font-size="11" font-family="monospace">102.0</text><line x1="610.0" y1="365" x2="610.0" y2="370" stroke="#222"/><text x="610.0" y="385" text-anchor="middle" font-size="11" font-family="monospace">103.0</text><line x1="615.2941176470589" y1="365" x2="615.2941176470589" y2="370" stroke="#222"/><text x="615.2941176470589" y="385" text-anchor="middle" font-size="11" font-family="monospace">104.0</text><line x1="620.5882352941177" y1="365" x2="620.5882352941177" y2="370" stroke="#222"/><text x="620.5882352941177" y="385" text-anchor="middle" font-size="11" font-family="monospace">105.0</text><line x1="625.8823529411765" y1="365" x2="625.8823529411765" y2="370" stroke="#222"/><text x="625.8823529411765" y="385" text-anchor="middle" font-size="11" font-family="monospace">106.0</text><line x1="631.1764705882354" y1="365" x2="631.1764705882354" y2="370" stroke="#222"/><text x="631.1764705882354" y="385" text-anchor="middle" font-size="11" font-family="monospace">107.0</text><line x1="636.4705882352941" y1="365" x2="636.4705882352941" y2="370" stroke="#222"/><text x="636.4705882352941" y="385" text-anchor="middle" font-size="11" font-family="monospace">108.0</text><line x1="641.7647058823529" y1="365" x2="641.7647058823529" y2="370" stroke="#222"/><text x="641.7647058823529" y="385" text-anchor="middle" font-size="11" font-family="monospace">109.0</text><line x1="647.0588235294117" y1="365" x2="647.0588235294117" y2="370" stroke="#222"/><text x="647.0588235294117" y="385" text-anchor="middle" font-size="11" font-family="monospace">110.0</text><line x1="652.3529411764706" y1="365" x2="652.3529411764706" y2="370" stroke="#222"/><text x="652.3529411764706" y="385" text-anchor="middle" font-size="11" font-family="monospace">111.0</text><line x1="657.6470588235294" y1="365" x2="657.6470588235294" y2="370" stroke="#222"/><text x="657.6470588235294" y="385" text-anchor="middle" font-size="11" font-family="monospace">112.0</text><line x1="662.9411764705882" y1="365" x2="662.9411764705882" y2="370" stroke="#222"/><text x="662.9411764705882" y="385" text-anchor="middle" font-size="11" font-family="monospace">113.0</text><line x1="668.2352941176471" y1="365" x2="668.2352941176471" y2="370" stroke="#222"/><text x="668.2352941176471" y="385" text-anchor="middle" font-size="11" font-family="monospace">114.0</text><line x1="673.5294117647059" y1="365" x2="673.5294117647059" y2="370" stroke="#222"/><text x="673.5294117647059" y="385" text-anchor="middle" font-size="11" font-family="monospace">115.0</text><line x1="678.8235294117648" y1="365" x2="678.8235294117648" y2="370" stroke="#222"/><text x="678.8235294117648" y="385" text-anchor="middle" font-size="11" font-family="monospace">116.0</text><line x1="684.1176470588235" y1="365" x2="684.1176470588235" y2="370" stroke="#222"/><text x="684.1176470588235" y="385" text-anchor="middle" font-size="11" font-family="monospace">117.0</text><line x1="689.4117647058823" y1="365" x2="689.4117647058823" y2="370" stroke="#222"/><text x="689.4117647058823" y="385" text-anchor="middle" font-size="11" font-family="monospace">118.0</text><line x1="694.7058823529412" y1="365" x2="694.7058823529412" y2="370" stroke="#222"/><text x="694.7058823529412" y="385" text-anchor="middle" font-size="11" font-family="monospace">119.0</text><line x1="700.0" y1="365" x2="700.0" y2="370" stroke="#222"/><text x="700.0" y="385" text-anchor="middle" font-size="11" font-family="monospace">120.0</text><polyline fill="none" stroke="#0b6e4f" stroke-width="3" points="70.0,50.0 75.3,50.0 80.6,50.0 85.9,50.0 91.2,50.0 96.5,50.0 101.8,50.0 107.1,207.5 112.4,207.5 117.6,207.5 122.9,207.5 128.2,207.5 133.5,207.5 138.8,207.5 144.1,207.5 149.4,207.5 154.7,207.5 160.0,207.5 165.3,207.5 170.6,265.2 175.9,265.2 181.2,265.2 186.5,265.2 191.8,265.2 197.1,265.2 202.4,265.2 207.6,265.2 212.9,265.2 218.2,265.2 223.5,265.2 228.8,265.2 234.1,265.2 239.4,265.2 244.7,265.2 250.0,265.2 255.3,265.2 260.6,265.2 265.9,265.2 271.2,265.2 276.5,265.2 281.8,265.2 287.1,265.2 292.4,265.2 297.6,236.4 302.9,236.4 308.2,236.4 313.5,236.4 318.8,236.4 324.1,236.4 329.4,236.4 334.7,236.4 340.0,236.4 345.3,236.4 350.6,236.4 355.9,236.4 361.2,236.4 366.5,276.9 371.8,276.9 377.1,276.9 382.4,276.9 387.6,276.9 392.9,276.9 398.2,276.9 403.5,276.9 408.8,276.9 414.1,276.9 419.4,276.9 424.7,276.9 430.0,276.9 435.3,276.9 440.6,276.9 445.9,276.9 451.2,276.9 456.5,276.9 461.8,276.9 467.1,276.9 472.4,276.9 477.6,276.9 482.9,276.9 488.2,276.9 493.5,276.9 498.8,276.9 504.1,276.9 509.4,276.9 514.7,276.9 520.0,276.9 525.3,276.9 530.6,276.9 535.9,276.9 541.2,276.9 546.5,276.9 551.8,276.9 557.1,276.9 562.4,276.9 567.6,276.9 572.9,276.9 578.2,276.9 583.5,276.9 588.8,276.9 594.1,276.9 599.4,276.9 604.7,276.9 610.0,276.9 615.3,276.9 620.6,276.9 625.9,276.9 631.2,276.9 636.5,276.9 641.8,276.9 647.1,276.9 652.4,276.9 657.6,276.9 662.9,276.9 668.2,276.9 673.5,276.9 678.8,276.9 684.1,276.9 689.4,276.9 694.7,276.9 700.0,276.9"/><circle cx="70.0" cy="50.0" r="4" fill="#0b6e4f"/><circle cx="75.3" cy="50.0" r="4" fill="#0b6e4f"/><circle cx="80.6" cy="50.0" r="4" fill="#0b6e4f"/><circle cx="85.9" cy="50.0" r="4" fill="#0b6e4f"/><circle cx="91.2" cy="50.0" r="4" fill="#0b6e4f"/><circle cx="96.5" cy="50.0" r="4" fill="#0b6e4f"/><circle cx="101.8" cy="50.0" r="4" fill="#0b6e4f"/><circle cx="107.1" cy="207.5" r="4" fill="#0b6e4f"/><circle cx="112.4" cy="207.5" r="4" fill="#0b6e4f"/><circle cx="117.6" cy="207.5" r="4" fill="#0b6e4f"/><circle cx="122.9" cy="207.5" r="4" fill="#0b6e4f"/><circle cx="128.2" cy="207.5" r="4" fill="#0b6e4f"/><circle cx="133.5" cy="207.5" r="4" fill="#0b6e4f"/><circle cx="138.8" cy="207.5" r="4" fill="#0b6e4f"/><circle cx="144.1" cy="207.5" r="4" fill="#0b6e4f"/><circle cx="149.4" cy="207.5" r="4" fill="#0b6e4f"/><circle cx="154.7" cy="207.5" r="4" fill="#0b6e4f"/><circle cx="160.0" cy="207.5" r="4" fill="#0b6e4f"/><circle cx="165.3" cy="207.5" r="4" fill="#0b6e4f"/><circle cx="170.6" cy="265.2" r="4" fill="#0b6e4f"/><circle cx="175.9" cy="265.2" r="4" fill="#0b6e4f"/><circle cx="181.2" cy="265.2" r="4" fill="#0b6e4f"/><circle cx="186.5" cy="265.2" r="4" fill="#0b6e4f"/><circle cx="191.8" cy="265.2" r="4" fill="#0b6e4f"/><circle cx="197.1" cy="265.2" r="4" fill="#0b6e4f"/><circle cx="202.4" cy="265.2" r="4" fill="#0b6e4f"/><circle cx="207.6" cy="265.2" r="4" fill="#0b6e4f"/><circle cx="212.9" cy="265.2" r="4" fill="#0b6e4f"/><circle cx="218.2" cy="265.2" r="4" fill="#0b6e4f"/><circle cx="223.5" cy="265.2" r="4" fill="#0b6e4f"/><circle cx="228.8" cy="265.2" r="4" fill="#0b6e4f"/><circle cx="234.1" cy="265.2" r="4" fill="#0b6e4f"/><circle cx="239.4" cy="265.2" r="4" fill="#0b6e4f"/><circle cx="244.7" cy="265.2" r="4" fill="#0b6e4f"/><circle cx="250.0" cy="265.2" r="4" fill="#0b6e4f"/><circle cx="255.3" cy="265.2" r="4" fill="#0b6e4f"/><circle cx="260.6" cy="265.2" r="4" fill="#0b6e4f"/><circle cx="265.9" cy="265.2" r="4" fill="#0b6e4f"/><circle cx="271.2" cy="265.2" r="4" fill="#0b6e4f"/><circle cx="276.5" cy="265.2" r="4" fill="#0b6e4f"/><circle cx="281.8" cy="265.2" r="4" fill="#0b6e4f"/><circle cx="287.1" cy="265.2" r="4" fill="#0b6e4f"/><circle cx="292.4" cy="265.2" r="4" fill="#0b6e4f"/><circle cx="297.6" cy="236.4" r="4" fill="#0b6e4f"/><circle cx="302.9" cy="236.4" r="4" fill="#0b6e4f"/><circle cx="308.2" cy="236.4" r="4" fill="#0b6e4f"/><circle cx="313.5" cy="236.4" r="4" fill="#0b6e4f"/><circle cx="318.8" cy="236.4" r="4" fill="#0b6e4f"/><circle cx="324.1" cy="236.4" r="4" fill="#0b6e4f"/><circle cx="329.4" cy="236.4" r="4" fill="#0b6e4f"/><circle cx="334.7" cy="236.4" r="4" fill="#0b6e4f"/><circle cx="340.0" cy="236.4" r="4" fill="#0b6e4f"/><circle cx="345.3" cy="236.4" r="4" fill="#0b6e4f"/><circle cx="350.6" cy="236.4" r="4" fill="#0b6e4f"/><circle cx="355.9" cy="236.4" r="4" fill="#0b6e4f"/><circle cx="361.2" cy="236.4" r="4" fill="#0b6e4f"/><circle cx="366.5" cy="276.9" r="4" fill="#0b6e4f"/><circle cx="371.8" cy="276.9" r="4" fill="#0b6e4f"/><circle cx="377.1" cy="276.9" r="4" fill="#0b6e4f"/><circle cx="382.4" cy="276.9" r="4" fill="#0b6e4f"/><circle cx="387.6" cy="276.9" r="4" fill="#0b6e4f"/><circle cx="392.9" cy="276.9" r="4" fill="#0b6e4f"/><circle cx="398.2" cy="276.9" r="4" fill="#0b6e4f"/><circle cx="403.5" cy="276.9" r="4" fill="#0b6e4f"/><circle cx="408.8" cy="276.9" r="4" fill="#0b6e4f"/><circle cx="414.1" cy="276.9" r="4" fill="#0b6e4f"/><circle cx="419.4" cy="276.9" r="4" fill="#0b6e4f"/><circle cx="424.7" cy="276.9" r="4" fill="#0b6e4f"/><circle cx="430.0" cy="276.9" r="4" fill="#0b6e4f"/><circle cx="435.3" cy="276.9" r="4" fill="#0b6e4f"/><circle cx="440.6" cy="276.9" r="4" fill="#0b6e4f"/><circle cx="445.9" cy="276.9" r="4" fill="#0b6e4f"/><circle cx="451.2" cy="276.9" r="4" fill="#0b6e4f"/><circle cx="456.5" cy="276.9" r="4" fill="#0b6e4f"/><circle cx="461.8" cy="276.9" r="4" fill="#0b6e4f"/><circle cx="467.1" cy="276.9" r="4" fill="#0b6e4f"/><circle cx="472.4" cy="276.9" r="4" fill="#0b6e4f"/><circle cx="477.6" cy="276.9" r="4" fill="#0b6e4f"/><circle cx="482.9" cy="276.9" r="4" fill="#0b6e4f"/><circle cx="488.2" cy="276.9" r="4" fill="#0b6e4f"/><circle cx="493.5" cy="276.9" r="4" fill="#0b6e4f"/><circle cx="498.8" cy="276.9" r="4" fill="#0b6e4f"/><circle cx="504.1" cy="276.9" r="4" fill="#0b6e4f"/><circle cx="509.4" cy="276.9" r="4" fill="#0b6e4f"/><circle cx="514.7" cy="276.9" r="4" fill="#0b6e4f"/><circle cx="520.0" cy="276.9" r="4" fill="#0b6e4f"/><circle cx="525.3" cy="276.9" r="4" fill="#0b6e4f"/><circle cx="530.6" cy="276.9" r="4" fill="#0b6e4f"/><circle cx="535.9" cy="276.9" r="4" fill="#0b6e4f"/><circle cx="541.2" cy="276.9" r="4" fill="#0b6e4f"/><circle cx="546.5" cy="276.9" r="4" fill="#0b6e4f"/><circle cx="551.8" cy="276.9" r="4" fill="#0b6e4f"/><circle cx="557.1" cy="276.9" r="4" fill="#0b6e4f"/><circle cx="562.4" cy="276.9" r="4" fill="#0b6e4f"/><circle cx="567.6" cy="276.9" r="4" fill="#0b6e4f"/><circle cx="572.9" cy="276.9" r="4" fill="#0b6e4f"/><circle cx="578.2" cy="276.9" r="4" fill="#0b6e4f"/><circle cx="583.5" cy="276.9" r="4" fill="#0b6e4f"/><circle cx="588.8" cy="276.9" r="4" fill="#0b6e4f"/><circle cx="594.1" cy="276.9" r="4" fill="#0b6e4f"/><circle cx="599.4" cy="276.9" r="4" fill="#0b6e4f"/><circle cx="604.7" cy="276.9" r="4" fill="#0b6e4f"/><circle cx="610.0" cy="276.9" r="4" fill="#0b6e4f"/><circle cx="615.3" cy="276.9" r="4" fill="#0b6e4f"/><circle cx="620.6" cy="276.9" r="4" fill="#0b6e4f"/><circle cx="625.9" cy="276.9" r="4" fill="#0b6e4f"/><circle cx="631.2" cy="276.9" r="4" fill="#0b6e4f"/><circle cx="636.5" cy="276.9" r="4" fill="#0b6e4f"/><circle cx="641.8" cy="276.9" r="4" fill="#0b6e4f"/><circle cx="647.1" cy="276.9" r="4" fill="#0b6e4f"/><circle cx="652.4" cy="276.9" r="4" fill="#0b6e4f"/><circle cx="657.6" cy="276.9" r="4" fill="#0b6e4f"/><circle cx="662.9" cy="276.9" r="4" fill="#0b6e4f"/><circle cx="668.2" cy="276.9" r="4" fill="#0b6e4f"/><circle cx="673.5" cy="276.9" r="4" fill="#0b6e4f"/><circle cx="678.8" cy="276.9" r="4" fill="#0b6e4f"/><circle cx="684.1" cy="276.9" r="4" fill="#0b6e4f"/><circle cx="689.4" cy="276.9" r="4" fill="#0b6e4f"/><circle cx="694.7" cy="276.9" r="4" fill="#0b6e4f"/><circle cx="700.0" cy="276.9" r="4" fill="#0b6e4f"/><rect x="545" y="40" width="10" height="10" fill="#0b6e4f"/><text x="560" y="50" font-size="12" font-family="monospace">greedy vs self_consistency_3</text></svg>