<svg xmlns="http://www.w3.org/2000/svg" width="720" height="420"><rect width="100%" height="100%" fill="#ffffff"/><text x="360.0" y="28" text-anchor="middle" font-size="20" font-family="monospace">Mean Deadline Utility</text><line x1="70" y1="365" x2="700" y2="365" stroke="#222"/><line x1="70" y1="50" x2="70" y2="365" stroke="#222"/><text x="360.0" y="408" text-anchor="middle" font-size="14" font-family="monospace">deadline_s</text><text x="18" y="210.0" text-anchor="middle" transform="rotate(-90 18 210.0)" font-size="14" font-family="monospace">mean_utility</text><line x1="65" y1="365.0" x2="70" y2="365.0" stroke="#222"/><text x="60" y="369.0" text-anchor="end" font-size="11" font-family="monospace">0.00</text><line x1="65" y1="286.25" x2="70" y2="286.25" stroke="#222"/><text x="60" y="290.25" text-anchor="end" font-size="11" font-family="monospace">0.25</text><line x1="65" y1="207.5" x2="70" y2="207.5" stroke="#222"/><text x="60" y="211.5" text-anchor="end" font-size="11" font-family="monospace">0.50</text><line x1="65" y1="128.75" x2="70" y2="128.75" stroke="#222"/><text x="60" y="132.75" text-anchor="end" font-size="11" font-family="monospace">0.75</text><line x1="65" y1="50.0" x2="70" y2="50.0" stroke="#222"/><text x="60" y="54.0" text-anchor="end" font-size="11" font-family="monospace">1.00</text><line x1="70.0" y1="365" x2="70.0" y2="370" stroke="#222"/><text x="70.0" y="385" text-anchor="middle" font-size="11" font-family="monospace">0.1</text><line x1="384.99999999999994" y1="365" x2="384.99999999999994" y2="370" stroke="#222"/><text x="384.99999999999994" y="385" text-anchor="middle" font-size="11" font-family="monospace">0.1</text><line x1="700.0" y1="365" x2="700.0" y2="370" stroke="#222"/><text x="700.0" y="385" text-anchor="middle" font-size="11" font-family="monospace">0.2</text><polyline fill="none" stroke="#0b6e4f" stroke-width="3" points="70.0,354.5 70.0,330.9 70.0,283.6 70.0,233.7 385.0,354.5 385.0,291.5 385.0,283.6 385.0,228.5 700.0,354.5 700.0,291.5 700.0,283.6 700.0,225.9"/><circle cx="70.0" cy="354.5" r="4" fill="#0b6e4f"/><circle cx="70.0" cy="330.9" r="4" fill="#0b6e4f"/><circle cx="70.0" cy="283.6" r="4" fill="#0b6e4f"/><circle cx="70.0" cy="233.7" r="4" fill="#0b6e4f"/><circle cx="385.0" cy="354.5" r="4" fill="#0b6e4f"/><circle cx="385.0" cy="291.5" r="4" fill="#0b6e4f"/><circle cx="385.0" cy="283.6" r="4" fill="#0b6e4f"/><circle cx="385.0" cy="228.5" r="4" fill="#0b6e4f"/><circle cx="700.0" cy="354.5" r="4" fill="#0b6e4f"/><circle cx="700.0" cy="291.5" r="4" fill="#0b6e4f"/><circle cx="700.0" cy="283.6" r="4" fill="#0b6e4f"/><circle cx="700.0" cy="225.9" r="4" fill="#0b6e4f"/><rect x="545" y="40" width="10" height="10" fill="#0b6e4f"/><text x="560" y="50" font-size="12" font-family="monospace">greedy</text><polyline fill="none" stroke="#b5651d" stroke-width="3" points="70.0,349.2 70.0,333.5 70.0,288.9 70.0,231.1 385.0,346.6 385.0,288.9 385.0,286.2 385.0,228.5 700.0,346.6 700.0,286.2 700.0,286.2 700.0,228.5"/><circle cx="70.0" cy="349.2" r="4" fill="#b5651d"/><circle cx="70.0" cy="333.5" r="4" fill="#b5651d"/><circle cx="70.0" cy="288.9" r="4" fill="#b5651d"/><circle cx="70.0" cy="231.1" r="4" fill="#b5651d"/><circle cx="385.0" cy="346.6" r="4" fill="#b5651d"/><circle cx="385.0" cy="288.9" r="4" fill="#b5651d"/><circle cx="385.0" cy="286.2" r="4" fill="#b5651d"/><circle cx="385.0" cy="228.5" r="4" fill="#b5651d"/><circle cx="700.0" cy="346.6" r="4" fill="#b5651d"/><circle cx="700.0" cy="286.2" r="4" fill="#b5651d"/><circle cx="700.0" cy="286.2" r="4" fill="#b5651d"/><circle cx="700.0" cy="228.5" r="4" fill="#b5651d"/><rect x="545" y="58" width="10" height="10" fill="#b5651d"/><text x="560" y="68" font-size="12" font-family="monospace">self_consistency_3</text><polyline fill="none" stroke="#1d4ed8" stroke-width="3" points="70.0,354.5 70.0,333.5 70.0,275.8 70.0,233.7 385.0,349.2 385.0,294.1 385.0,278.4 385.0,225.9 700.0,349.2 700.0,294.1 700.0,278.4 700.0,223.2"/><circle cx="70.0" cy="354.5" r="4" fill="#1d4ed8"/><circle cx="70.0" cy="333.5" r="4" fill="#1d4ed8"/><circle cx="70.0" cy="275.8" r="4" fill="#1d4ed8"/><circle cx="70.0" cy="233.7" r="4" fill="#1d4ed8"/><circle cx="385.0" cy="349.2" r="4" fill="#1d4ed8"/><circle cx="385.0" cy="294.1" r="4" fill="#1d4ed8"/><circle cx="385.0" cy="278.4" r="4" fill="#1d4ed8"/><circle cx="385.0" cy="225.9" r="4" fill="#1d4ed8"/><circle cx="700.0" cy="349.2" r="4" fill="#1d4ed8"/><circle cx="700.0" cy="294.1" r="4" fill="#1d4ed8"/><circle cx="700.0" cy="278.4" r="4" fill="#1d4ed8"/><circle cx="700.0" cy="223.2" r="4" fill="#1d4ed8"/><rect x="545" y="76" width="10" height="10" fill="#1d4ed8"/><text x="560" y="86" font-size="12" font-family="monospace">budget_branch</text><polyline fill="none" stroke="#b91c1c" stroke-width="3" points="70.0,357.1 70.0,336.1 70.0,286.2 70.0,236.4 385.0,357.1 385.0,296.7 385.0,286.2 385.0,231.1 700.0,357.1 700.0,296.7 700.0,286.2 700.0,228.5"/><circle cx="70.0" cy="357.1" r="4" fill="#b91c1c"/><circle cx="70.0" cy="336.1" r="4" fill="#b91c1c"/><circle cx="70.0" cy="286.2" r="4" fill="#b91c1c"/><circle cx="70.0" cy="236.4" r="4" fill="#b91c1c"/><circle cx="385.0" cy="357.1" r="4" fill="#b91c1c"/><circle cx="385.0" cy="296.7" r="4" fill="#b91c1c"/><circle cx="385.0" cy="286.2" r="4" fill="#b91c1c"/><circle cx="385.0" cy="231.1" r="4" fill="#b91c1c"/><circle cx="700.0" cy="357.1" r="4" fill="#b91c1c"/><circle cx="700.0" cy="296.7" r="4" fill="#b91c1c"/><circle cx="700.0" cy="286.2" r="4" fill="#b91c1c"/><circle cx="700.0" cy="228.5" r="4" fill="#b91c1c"/><rect x="545" y="94" width="10" height="10" fill="#b91c1c"/><text x="560" y="104" font-size="12" font-family="monospace">selective_abstain</text></svg>